<?xml version="1.0" standalone="no"?>
<!DOCTYPE svg PUBLIC "-//W3C//DTD SVG 20010904//EN"
 "http://www.w3.org/TR/2001/REC-SVG-20010904/DTD/svg10.dtd">
<svg version="1.0" xmlns="http://www.w3.org/2000/svg"
 width="512.000000pt" height="512.000000pt" viewBox="0 0 512.000000 512.000000"
 preserveAspectRatio="xMidYMid meet">
<metadata>
Created by potrace 1.14, written by Peter Selinger 2001-2017
</metadata>
<g transform="translate(0.000000,512.000000) scale(0.100000,-0.100000)"
fill="#000000" stroke="none">
<path d="M2380 5117 c-3 -3 -39 -7 -80 -11 -41 -3 -86 -8 -100 -11 -14 -2 -54
-9 -90 -15 -130 -23 -362 -86 -455 -125 -16 -7 -61 -25 -100 -41 -427 -174
-852 -526 -1123 -932 -226 -337 -381 -763 -419 -1147 -10 -101 -10 -413 -1
-525 26 -305 134 -660 289 -955 55 -105 190 -309 274 -413 187 -232 453 -455
725 -608 286 -162 640 -281 921 -310 35 -3 68 -9 73 -11 15 -10 420 -11 496
-2 153 17 178 21 300 46 368 74 768 264 1078 512 512 412 848 1015 933 1676
26 202 16 587 -21 770 -24 122 -30 147 -54 233 -179 635 -588 1169 -1161 1514
-266 161 -646 294 -945 333 -25 3 -61 8 -80 11 -45 7 -454 16 -460 11z"/>
</g>
</svg>
